M48
;DRILL file {KiCad 5.0.2-bee76a0~70~ubuntu18.04.1} date mar 30 apr 2019 10:02:21 CEST
;FORMAT={-:-/ absolute / inch / decimal}
FMAT,2
INCH,TZ
T1C0.0157
T2C0.0394
T3C0.0430
T4C0.0433
%
G90
G05
T1
X2.795Y-3.095
X3.07Y-3.02
X3.31Y-3.8987
X3.3457Y-4.025
X3.3457Y-4.595
X3.365Y-3.69
X3.46Y-3.885
X3.4635Y-3.1685
X3.52Y-3.07
X3.56Y-3.925
X3.685Y-4.615
X3.695Y-5.93
X3.77Y-3.925
X3.775Y-4.615
X3.86Y-3.07
X3.885Y-3.225
X3.905Y-3.63
X3.9512Y-3.3043
X3.9512Y-4.0543
X3.9598Y-2.56
X3.9598Y-4.81
X3.9598Y-5.56
X3.975Y-3.765
X3.975Y-4.52
X3.975Y-5.265
X4.075Y-3.22
X4.075Y-3.97
X4.075Y-4.74
X4.175Y-3.765
X4.175Y-4.52
X4.175Y-5.265
X4.225Y-3.635
X4.325Y-3.885
X4.325Y-4.635
X4.345Y-3.135
X4.655Y-3.62
X4.7098Y-2.56
X4.7098Y-3.31
X4.7098Y-4.06
X4.7098Y-4.81
X4.7098Y-5.56
X4.955Y-3.63
X5.32Y-3.885
X5.325Y-4.635
X5.33Y-3.41
X5.38Y-3.225
X5.38Y-3.98
X5.38Y-4.735
X5.41Y-5.285
X5.4598Y-2.56
X5.4598Y-5.56
X5.4748Y-3.3144
X5.4748Y-4.06
X5.4776Y-4.7922
X5.575Y-3.78
X5.575Y-4.525
X5.575Y-5.29
X5.67Y-4.015
X5.67Y-4.765
X5.675Y-3.255
X6.0909Y-4.6581
X6.15Y-4.1448
X6.15Y-5.6448
X6.2098Y-2.56
T2
X2.81Y-3.845
X2.91Y-3.845
X3.01Y-3.845
X3.11Y-3.845
T3
X2.66Y-2.545
X2.66Y-2.645
X2.66Y-2.745
X2.66Y-2.845
X2.66Y-2.945
X2.66Y-3.045
X2.66Y-3.145
X2.66Y-3.245
X2.66Y-3.345
X2.66Y-3.445
X2.66Y-3.545
X2.66Y-3.645
X3.26Y-2.545
X3.26Y-2.645
X3.26Y-2.745
X3.26Y-2.845
X3.26Y-2.945
X3.26Y-3.045
X3.26Y-3.145
X3.26Y-3.245
X3.26Y-3.345
X3.26Y-3.445
X3.26Y-3.545
X3.26Y-3.645
T4
X2.8778Y-2.6391
X2.8778Y-2.895
X3.055Y-2.6391
X3.055Y-2.895
T0
M30
