M48
;DRILL file {KiCad 5.0.2-bee76a0~70~ubuntu18.04.1} date lun 27 mag 2019 19:22:13 CEST
;FORMAT={-:-/ absolute / inch / decimal}
FMAT,2
INCH,TZ
T1C0.0670
T2C0.1181
T3C0.1200
T4C0.1260
T5C0.1570
%
G90
G05
T1
X5.95Y-3.685
X5.95Y-4.085
X3.5Y-3.51
X3.9Y-3.51
X3.5Y-5.01
X3.9Y-5.01
X5.Y-2.76
X5.4Y-2.76
X4.25Y-2.76
X4.65Y-2.76
X4.25Y-4.26
X4.65Y-4.26
X5.75Y-2.76
X6.15Y-2.76
X5.Y-4.26
X5.4Y-4.26
X3.5Y-2.76
X3.9Y-2.76
X4.25Y-5.01
X4.65Y-5.01
X5.Y-5.01
X5.4Y-5.01
X5.95Y-5.185
X5.95Y-5.585
X5.Y-3.51
X5.4Y-3.51
X3.5Y-5.76
X3.9Y-5.76
X4.25Y-3.51
X4.65Y-3.51
X4.25Y-5.76
X4.65Y-5.76
X3.5Y-4.26
X3.9Y-4.26
X5.Y-5.76
X5.4Y-5.76
T2
X6.05Y-3.735
X6.15Y-3.985
X3.55Y-3.41
X3.8Y-3.31
X3.55Y-4.91
X3.8Y-4.81
X5.05Y-2.66
X5.3Y-2.56
X4.3Y-2.66
X4.55Y-2.56
X4.3Y-4.16
X4.55Y-4.06
X5.8Y-2.66
X6.05Y-2.56
X5.05Y-4.16
X5.3Y-4.06
X3.55Y-2.66
X3.8Y-2.56
X4.3Y-4.91
X4.55Y-4.81
X5.05Y-4.91
X5.3Y-4.81
X6.05Y-5.235
X6.15Y-5.485
X5.05Y-3.41
X5.3Y-3.31
X3.55Y-5.66
X3.8Y-5.56
X4.3Y-3.41
X4.55Y-3.31
X4.3Y-5.66
X4.55Y-5.56
X3.55Y-4.16
X3.8Y-4.06
X5.05Y-5.66
X5.3Y-5.56
T3
X6.225Y-3.415
X6.225Y-4.355
X6.225Y-4.915
X6.225Y-5.855
T4
X6.18Y-4.635
X4.825Y-4.635
X4.075Y-2.84
X3.45Y-5.387
X6.18Y-3.135
T5
X3.7Y-5.76
X4.45Y-3.51
X4.45Y-5.76
X3.7Y-4.26
X5.2Y-5.76
X5.625Y-3.415
X5.625Y-4.355
X5.95Y-3.885
X3.7Y-3.51
X3.7Y-5.01
X5.2Y-2.76
X4.45Y-2.76
X4.45Y-4.26
X5.95Y-2.76
X5.2Y-4.26
X3.7Y-2.76
X4.45Y-5.01
X5.2Y-5.01
X5.625Y-4.915
X5.625Y-5.855
X5.95Y-5.385
X5.2Y-3.51
T0
M30
