  0
SECTION
  2
HEADER
  9
$ANGBASE
  50
0.0
  9
$ANGDIR
  70
  1
  9
$MEASUREMENT
  70
0
  0
ENDSEC
  0
SECTION
  2
TABLES
  0
TABLE
  2
LTYPE
  70
4
  0
LTYPE
  5
40F
  2
CONTINUOUS
  70
0
  3
Solid line
  72
65
  73
0
  40
0.0
  0
LTYPE
  5
410
  2
DASHDOT
 70
0
  3
Dash Dot ____ _ ____ _
 72
65
 73
4
 40
2.0
 49
1.25
 49
-0.25
 49
0.25
 49
-0.25
  0
LTYPE
  5
411
  2
DASHED
 70
0
  3
Dashed __ __ __ __ __
 72
65
 73
2
 40
0.75
 49
0.5
 49
-0.25
  0
LTYPE
  5
43B
  2
DOTTED
 70
0
  3
Dotted .  .  .  .
 72
65
 73
2
 40
0.2
 49
0.0
 49
-0.2
  0
ENDTAB
  0
TABLE
  2
STYLE
  70
4
  0
STYLE
  2
KICAD
  70
0
  40
0
  41
1
  42
1
  50
0
  71
0
  3
isocp.shx
  0
STYLE
  2
KICADB
  70
0
  40
0
  41
1
  42
1
  50
0
  71
0
  3
isocp.shx
  0
STYLE
  2
KICADI
  70
0
  40
0
  41
1
  42
1
  50
15
  71
0
  3
isocp.shx
  0
STYLE
  2
KICADBI
  70
0
  40
0
  41
1
  42
1
  50
15
  71
0
  3
isocp.shx
  0
ENDTAB
  0
TABLE
  2
LAYER
  70
30
  0
LAYER
  2
BLACK
  70
0
  62
7
  6
CONTINUOUS
  0
LAYER
  2
GRAY1
  70
0
  62
251
  6
CONTINUOUS
  0
LAYER
  2
GRAY2
  70
0
  62
8
  6
CONTINUOUS
  0
LAYER
  2
GRAY3
  70
0
  62
9
  6
CONTINUOUS
  0
LAYER
  2
WHITE
  70
0
  62
7
  6
CONTINUOUS
  0
LAYER
  2
LYELLOW
  70
0
  62
51
  6
CONTINUOUS
  0
LAYER
  2
BLUE1
  70
0
  62
178
  6
CONTINUOUS
  0
LAYER
  2
GREEN1
  70
0
  62
98
  6
CONTINUOUS
  0
LAYER
  2
CYAN1
  70
0
  62
138
  6
CONTINUOUS
  0
LAYER
  2
RED1
  70
0
  62
18
  6
CONTINUOUS
  0
LAYER
  2
MAGENTA1
  70
0
  62
228
  6
CONTINUOUS
  0
LAYER
  2
BROWN1
  70
0
  62
58
  6
CONTINUOUS
  0
LAYER
  2
BLUE2
  70
0
  62
5
  6
CONTINUOUS
  0
LAYER
  2
GREEN2
  70
0
  62
3
  6
CONTINUOUS
  0
LAYER
  2
CYAN2
  70
0
  62
4
  6
CONTINUOUS
  0
LAYER
  2
RED2
  70
0
  62
1
  6
CONTINUOUS
  0
LAYER
  2
MAGENTA2
  70
0
  62
6
  6
CONTINUOUS
  0
LAYER
  2
BROWN2
  70
0
  62
54
  6
CONTINUOUS
  0
LAYER
  2
BLUE3
  70
0
  62
171
  6
CONTINUOUS
  0
LAYER
  2
GREEN3
  70
0
  62
91
  6
CONTINUOUS
  0
LAYER
  2
CYAN3
  70
0
  62
131
  6
CONTINUOUS
  0
LAYER
  2
RED3
  70
0
  62
11
  6
CONTINUOUS
  0
LAYER
  2
MAGENTA3
  70
0
  62
221
  6
CONTINUOUS
  0
LAYER
  2
YELLOW3
  70
0
  62
2
  6
CONTINUOUS
  0
LAYER
  2
BLUE4
  70
0
  62
5
  6
CONTINUOUS
  0
LAYER
  2
GREEN4
  70
0
  62
3
  6
CONTINUOUS
  0
LAYER
  2
CYAN4
  70
0
  62
4
  6
CONTINUOUS
  0
LAYER
  2
RED4
  70
0
  62
1
  6
CONTINUOUS
  0
LAYER
  2
MAGENTA4
  70
0
  62
6
  6
CONTINUOUS
  0
LAYER
  2
YELLOW4
  70
0
  62
2
  6
CONTINUOUS
  0
ENDTAB
  0
ENDSEC
  0
SECTION
  2
ENTITIES
0
CIRCLE
8
BLACK
10
87.63
20
-136.843
40
3.25526
0
CIRCLE
8
BLACK
10
122.555
20
-117.729
40
3.25279
0
CIRCLE
8
BLACK
10
156.972
20
-117.729
40
3.23788
0
CIRCLE
8
BLACK
10
156.972
20
-79.629
40
3.24534
0
CIRCLE
8
BLACK
10
103.505
20
-72.136
40
3.25526
0
LINE
8
BLACK
6
CONTINUOUS
10
71.501
20
-64.516
11
71.501
21
-59.182
0
LINE
8
BLACK
6
CONTINUOUS
10
79.121
20
-64.516
11
71.501
21
-64.516
0
LINE
8
BLACK
6
CONTINUOUS
10
79.121
20
-59.182
11
79.121
21
-64.516
0
LINE
8
BLACK
6
CONTINUOUS
10
71.501
20
-59.182
11
79.121
21
-59.182
0
LINE
8
BLACK
6
CONTINUOUS
10
66.167
20
-94.107
11
66.04
21
-60.706
0
LINE
8
BLACK
6
CONTINUOUS
10
84.328
20
-94.107
11
66.167
21
-94.107
0
LINE
8
BLACK
6
CONTINUOUS
10
84.328
20
-60.706
11
84.328
21
-94.107
0
LINE
8
BLACK
6
CONTINUOUS
10
66.167
20
-60.706
11
84.328
21
-60.706
0
LINE
8
BLACK
6
CONTINUOUS
10
158.115
20
-129.794
11
158.115
21
-143.764
0
LINE
8
BLACK
6
CONTINUOUS
10
158.115
20
-143.764
11
144.145
21
-143.764
0
LINE
8
BLACK
6
CONTINUOUS
10
144.145
20
-143.764
11
144.145
21
-129.794
0
LINE
8
BLACK
6
CONTINUOUS
10
144.145
20
-129.794
11
158.115
21
-129.794
0
LINE
8
BLACK
6
CONTINUOUS
10
158.115
20
-91.694
11
158.115
21
-105.664
0
LINE
8
BLACK
6
CONTINUOUS
10
158.115
20
-105.664
11
144.145
21
-105.664
0
LINE
8
BLACK
6
CONTINUOUS
10
144.145
20
-105.664
11
144.145
21
-91.694
0
LINE
8
BLACK
6
CONTINUOUS
10
144.145
20
-91.694
11
158.115
21
-91.694
0
LINE
8
BLACK
6
CONTINUOUS
10
125.095
20
-101.219
11
139.065
21
-101.219
0
LINE
8
BLACK
6
CONTINUOUS
10
139.065
20
-101.219
11
139.065
21
-115.189
0
LINE
8
BLACK
6
CONTINUOUS
10
139.065
20
-115.189
11
125.095
21
-115.189
0
LINE
8
BLACK
6
CONTINUOUS
10
125.095
20
-115.189
11
125.095
21
-101.219
0
LINE
8
BLACK
6
CONTINUOUS
10
86.995
20
-63.119
11
100.965
21
-63.119
0
LINE
8
BLACK
6
CONTINUOUS
10
100.965
20
-63.119
11
100.965
21
-77.089
0
LINE
8
BLACK
6
CONTINUOUS
10
100.965
20
-77.089
11
86.995
21
-77.089
0
LINE
8
BLACK
6
CONTINUOUS
10
86.995
20
-77.089
11
86.995
21
-63.119
0
LINE
8
BLACK
6
CONTINUOUS
10
106.045
20
-63.119
11
120.015
21
-63.119
0
LINE
8
BLACK
6
CONTINUOUS
10
120.015
20
-63.119
11
120.015
21
-77.089
0
LINE
8
BLACK
6
CONTINUOUS
10
120.015
20
-77.089
11
106.045
21
-77.089
0
LINE
8
BLACK
6
CONTINUOUS
10
106.045
20
-77.089
11
106.045
21
-63.119
0
LINE
8
BLACK
6
CONTINUOUS
10
125.095
20
-63.119
11
139.065
21
-63.119
0
LINE
8
BLACK
6
CONTINUOUS
10
139.065
20
-63.119
11
139.065
21
-77.089
0
LINE
8
BLACK
6
CONTINUOUS
10
139.065
20
-77.089
11
125.095
21
-77.089
0
LINE
8
BLACK
6
CONTINUOUS
10
125.095
20
-77.089
11
125.095
21
-63.119
0
LINE
8
BLACK
6
CONTINUOUS
10
144.145
20
-63.119
11
158.115
21
-63.119
0
LINE
8
BLACK
6
CONTINUOUS
10
158.115
20
-63.119
11
158.115
21
-77.089
0
LINE
8
BLACK
6
CONTINUOUS
10
158.115
20
-77.089
11
144.145
21
-77.089
0
LINE
8
BLACK
6
CONTINUOUS
10
144.145
20
-77.089
11
144.145
21
-63.119
0
LINE
8
BLACK
6
CONTINUOUS
10
86.995
20
-82.169
11
100.965
21
-82.169
0
LINE
8
BLACK
6
CONTINUOUS
10
100.965
20
-82.169
11
100.965
21
-96.139
0
LINE
8
BLACK
6
CONTINUOUS
10
100.965
20
-96.139
11
86.995
21
-96.139
0
LINE
8
BLACK
6
CONTINUOUS
10
86.995
20
-96.139
11
86.995
21
-82.169
0
LINE
8
BLACK
6
CONTINUOUS
10
106.045
20
-82.169
11
120.015
21
-82.169
0
LINE
8
BLACK
6
CONTINUOUS
10
120.015
20
-82.169
11
120.015
21
-96.139
0
LINE
8
BLACK
6
CONTINUOUS
10
120.015
20
-96.139
11
106.045
21
-96.139
0
LINE
8
BLACK
6
CONTINUOUS
10
106.045
20
-96.139
11
106.045
21
-82.169
0
LINE
8
BLACK
6
CONTINUOUS
10
125.095
20
-82.169
11
139.065
21
-82.169
0
LINE
8
BLACK
6
CONTINUOUS
10
139.065
20
-82.169
11
139.065
21
-96.139
0
LINE
8
BLACK
6
CONTINUOUS
10
139.065
20
-96.139
11
125.095
21
-96.139
0
LINE
8
BLACK
6
CONTINUOUS
10
125.095
20
-96.139
11
125.095
21
-82.169
0
LINE
8
BLACK
6
CONTINUOUS
10
86.995
20
-101.219
11
100.965
21
-101.219
0
LINE
8
BLACK
6
CONTINUOUS
10
100.965
20
-101.219
11
100.965
21
-115.189
0
LINE
8
BLACK
6
CONTINUOUS
10
100.965
20
-115.189
11
86.995
21
-115.189
0
LINE
8
BLACK
6
CONTINUOUS
10
86.995
20
-115.189
11
86.995
21
-101.219
0
LINE
8
BLACK
6
CONTINUOUS
10
106.045
20
-101.219
11
120.015
21
-101.219
0
LINE
8
BLACK
6
CONTINUOUS
10
120.015
20
-101.219
11
120.015
21
-115.189
0
LINE
8
BLACK
6
CONTINUOUS
10
120.015
20
-115.189
11
106.045
21
-115.189
0
LINE
8
BLACK
6
CONTINUOUS
10
106.045
20
-115.189
11
106.045
21
-101.219
0
LINE
8
BLACK
6
CONTINUOUS
10
86.995
20
-120.269
11
100.965
21
-120.269
0
LINE
8
BLACK
6
CONTINUOUS
10
100.965
20
-120.269
11
100.965
21
-134.239
0
LINE
8
BLACK
6
CONTINUOUS
10
100.965
20
-134.239
11
86.995
21
-134.239
0
LINE
8
BLACK
6
CONTINUOUS
10
86.995
20
-134.239
11
86.995
21
-120.269
0
LINE
8
BLACK
6
CONTINUOUS
10
106.045
20
-120.269
11
120.015
21
-120.269
0
LINE
8
BLACK
6
CONTINUOUS
10
120.015
20
-120.269
11
120.015
21
-134.239
0
LINE
8
BLACK
6
CONTINUOUS
10
120.015
20
-134.239
11
106.045
21
-134.239
0
LINE
8
BLACK
6
CONTINUOUS
10
106.045
20
-134.239
11
106.045
21
-120.269
0
LINE
8
BLACK
6
CONTINUOUS
10
125.095
20
-120.269
11
139.065
21
-120.269
0
LINE
8
BLACK
6
CONTINUOUS
10
139.065
20
-120.269
11
139.065
21
-134.239
0
LINE
8
BLACK
6
CONTINUOUS
10
139.065
20
-134.239
11
125.095
21
-134.239
0
LINE
8
BLACK
6
CONTINUOUS
10
125.095
20
-134.239
11
125.095
21
-120.269
0
LINE
8
BLACK
6
CONTINUOUS
10
86.995
20
-139.319
11
100.965
21
-139.319
0
LINE
8
BLACK
6
CONTINUOUS
10
100.965
20
-139.319
11
100.965
21
-153.289
0
LINE
8
BLACK
6
CONTINUOUS
10
100.965
20
-153.289
11
86.995
21
-153.289
0
LINE
8
BLACK
6
CONTINUOUS
10
86.995
20
-153.289
11
86.995
21
-139.319
0
LINE
8
BLACK
6
CONTINUOUS
10
106.045
20
-139.319
11
120.015
21
-139.319
0
LINE
8
BLACK
6
CONTINUOUS
10
120.015
20
-139.319
11
120.015
21
-153.289
0
LINE
8
BLACK
6
CONTINUOUS
10
120.015
20
-153.289
11
106.045
21
-153.289
0
LINE
8
BLACK
6
CONTINUOUS
10
106.045
20
-153.289
11
106.045
21
-139.319
0
LINE
8
BLACK
6
CONTINUOUS
10
125.095
20
-139.319
11
139.065
21
-139.319
0
LINE
8
BLACK
6
CONTINUOUS
10
139.065
20
-139.319
11
139.065
21
-153.289
0
LINE
8
BLACK
6
CONTINUOUS
10
139.065
20
-153.289
11
125.095
21
-153.289
0
LINE
8
BLACK
6
CONTINUOUS
10
125.095
20
-153.289
11
125.095
21
-139.319
  0
ENDSEC
  0
EOF
